<svg width="48" height="48" viewBox="0 0 48 48" fill="none" xmlns="http://www.w3.org/2000/svg">
<g id="emojione:seat">
<path id="Vector" d="M40.875 24.0001C41.025 25.6501 39.9 27.0001 38.325 27.0001H9.67498C8.09998 27.0001 6.97498 25.6501 7.12498 24.0001L8.69998 7.3501C8.84998 5.7001 10.275 4.3501 11.85 4.3501H36.15C37.725 4.3501 39.15 5.7001 39.3 7.3501L40.875 24.0001Z" fill="#B4D7EE"/>
<path id="Vector_2" d="M6.67505 22.875H11.175V28.875H6.67505V22.875ZM36.825 22.875H41.325V28.875H36.825V22.875ZM10.95 38.175H15.45V45.75H10.95V38.175ZM32.55 38.175H37.05V45.75H32.55V38.175Z" fill="#FAFAFA"/>
<path id="Vector_3" d="M31.05 18.7499C30.825 20.6999 29.25 22.3499 27.675 22.3499H20.325C18.675 22.3499 17.175 20.775 16.95 18.7499L15.6 7.79995C15.375 5.84995 16.5 4.19995 18.075 4.19995H29.85C31.5 4.19995 32.625 5.84995 32.325 7.79995L31.05 18.7499Z" fill="#428BC1"/>
<path id="Vector_4" d="M17.2499 44.175C17.0999 43.8 16.6499 43.425 16.2749 43.425H10.2749C9.82494 43.425 9.44994 43.725 9.29994 44.175L8.17494 47.25C8.02494 47.625 8.24994 48 8.69994 48H17.6999C18.1499 48 18.3749 47.7 18.2249 47.25L17.2499 44.175ZM39.8249 47.25L38.7749 44.175C38.6249 43.8 38.1749 43.425 37.7999 43.425H31.7999C31.3499 43.425 30.9749 43.725 30.8249 44.175L29.7749 47.25C29.6249 47.625 29.8499 48 30.2999 48H39.2999C39.6749 48 39.8999 47.7 39.8249 47.25Z" fill="#94989B"/>
<path id="Vector_5" d="M34.65 4.5C34.65 6.15 33.375 7.5 31.8 7.5H16.125C14.55 7.5 13.275 6.15 13.275 4.5V3C13.275 1.35 14.55 0 16.125 0H31.8C33.375 0 34.65 1.35 34.65 3V4.5ZM11.625 21.9L11.4 20.325C11.25 19.5 10.575 18.825 9.82502 18.825H7.80002C7.05002 18.825 6.37502 19.5 6.22502 20.325L6.00002 21.9C5.85002 22.725 6.37502 23.4 7.12502 23.4H10.5C11.25 23.4 11.775 22.725 11.625 21.9ZM41.85 21.9L41.625 20.325C41.475 19.5 40.8 18.825 40.05 18.825H38.025C37.275 18.825 36.6 19.5 36.45 20.325L36.225 21.9C36.075 22.725 36.6 23.4 37.35 23.4H40.725C41.475 23.4 41.925 22.725 41.85 21.9ZM38.625 27H9.37502C7.05002 27 5.62502 29.25 6.07502 32.025L6.37502 33.975C6.82502 36.75 9.15002 39 11.4 39H36.45C38.775 39 41.025 36.75 41.475 33.975L41.85 32.025C42.375 29.325 40.875 27 38.625 27Z" fill="#29ABE2"/>
</g>
</svg>
