<svg width="43" height="49" viewBox="0 0 43 49" fill="none" xmlns="http://www.w3.org/2000/svg">
<g id="Group 11220">
<g id="Group" filter="url(#filter0_d_213_12489)">
<path id="Ellipse 79" d="M24.5 40C34.7173 40 43 31.7173 43 21.5C43 11.2827 34.7173 3 24.5 3C14.2827 3 6 11.2827 6 21.5C6 31.7173 14.2827 40 24.5 40Z" fill="#0A74D7"/>
</g>
<g id="Icon material-camera-alt">
<path id="Path 1888" d="M26.5899 22.6416C26.5899 23.1024 26.4532 23.5528 26.1972 23.9359C25.9413 24.319 25.5774 24.6176 25.1517 24.7939C24.7261 24.9703 24.2576 25.0164 23.8057 24.9265C23.3538 24.8366 22.9387 24.6147 22.6129 24.2889C22.2871 23.9631 22.0653 23.548 21.9754 23.0961C21.8855 22.6442 21.9316 22.1758 22.1079 21.7501C22.2843 21.3244 22.5829 20.9606 22.966 20.7046C23.3491 20.4486 23.7995 20.312 24.2602 20.312C24.8781 20.312 25.4706 20.5575 25.9075 20.9943C26.3444 21.4312 26.5899 22.0238 26.5899 22.6416Z" fill="white"/>
<path id="Path 1889" d="M22.0868 15.3732L20.7576 16.8258H18.4553C18.0704 16.8268 17.7016 16.9802 17.4294 17.2524C17.1572 17.5246 17.0038 17.8934 17.0027 18.2784V26.9939C17.0038 27.3788 17.1572 27.7477 17.4294 28.0198C17.7016 28.292 18.0704 28.4454 18.4553 28.4465H30.0775C30.4624 28.4454 30.8312 28.292 31.1034 28.0198C31.3756 27.7477 31.529 27.3788 31.53 26.9939V18.2784C31.529 17.8934 31.3756 17.5246 31.1034 17.2524C30.8312 16.9802 30.4624 16.8268 30.0775 16.8258H27.7739L26.446 15.3732H22.0868ZM24.2657 26.269C23.5475 26.269 22.8454 26.056 22.2482 25.657C21.651 25.2579 21.1855 24.6908 20.9107 24.0272C20.6358 23.3636 20.5639 22.6335 20.704 21.929C20.8441 21.2246 21.19 20.5775 21.6979 20.0697C22.2057 19.5618 22.8528 19.2159 23.5572 19.0758C24.2617 18.9357 24.9919 19.0076 25.6554 19.2825C26.319 19.5573 26.8861 20.0228 27.2852 20.62C27.6842 21.2172 27.8972 21.9193 27.8972 22.6375C27.8968 23.6005 27.5141 24.524 26.8332 25.2049C26.1522 25.8859 25.2287 26.2686 24.2657 26.269Z" fill="white"/>
</g>
</g>
<defs>
<filter id="filter0_d_213_12489" x="0" y="0" width="49" height="49" filterUnits="userSpaceOnUse" color-interpolation-filters="sRGB">
<feFlood flood-opacity="0" result="BackgroundImageFix"/>
<feColorMatrix in="SourceAlpha" type="matrix" values="0 0 0 0 0 0 0 0 0 0 0 0 0 0 0 0 0 0 127 0" result="hardAlpha"/>
<feOffset dy="3"/>
<feGaussianBlur stdDeviation="3"/>
<feColorMatrix type="matrix" values="0 0 0 0 0 0 0 0 0 0 0 0 0 0 0 0 0 0 0.161 0"/>
<feBlend mode="normal" in2="BackgroundImageFix" result="effect1_dropShadow_213_12489"/>
<feBlend mode="normal" in="SourceGraphic" in2="effect1_dropShadow_213_12489" result="shape"/>
</filter>
</defs>
</svg>
