<svg width="32" height="33" viewBox="0 0 32 33" fill="none" xmlns="http://www.w3.org/2000/svg">
<g id="mdi:cash">
<path id="Vector" d="M4 8.73706H28V24.7371H4V8.73706ZM16 12.7371C17.0609 12.7371 18.0783 13.1585 18.8284 13.9086C19.5786 14.6588 20 15.6762 20 16.7371C20 17.7979 19.5786 18.8153 18.8284 19.5655C18.0783 20.3156 17.0609 20.7371 16 20.7371C14.9391 20.7371 13.9217 20.3156 13.1716 19.5655C12.4214 18.8153 12 17.7979 12 16.7371C12 15.6762 12.4214 14.6588 13.1716 13.9086C13.9217 13.1585 14.9391 12.7371 16 12.7371ZM9.33333 11.4037C9.33333 12.111 9.05238 12.7892 8.55229 13.2893C8.05219 13.7894 7.37391 14.0704 6.66667 14.0704V19.4037C7.37391 19.4037 8.05219 19.6847 8.55229 20.1848C9.05238 20.6849 9.33333 21.3632 9.33333 22.0704H22.6667C22.6667 21.3632 22.9476 20.6849 23.4477 20.1848C23.9478 19.6847 24.6261 19.4037 25.3333 19.4037V14.0704C24.6261 14.0704 23.9478 13.7894 23.4477 13.2893C22.9476 12.7892 22.6667 12.111 22.6667 11.4037H9.33333Z" fill="#0A74D7"/>
</g>
</svg>
