<svg width="36" height="36" viewBox="0 0 36 36" fill="none" xmlns="http://www.w3.org/2000/svg">
<g id="Group 11232">
<path id="Rectangle 72" d="M36 18C36 8.05887 27.9411 0 18 0C8.05887 0 0 8.05887 0 18C0 27.9411 8.05887 36 18 36C27.9411 36 36 27.9411 36 18Z" fill="#0A74D7"/>
<path id="index" d="M23.5931 10.7871H12.8031C12.2928 10.8246 11.8177 11.0615 11.4808 11.4467C11.1439 11.8319 10.9723 12.3343 11.0031 12.8451V24.3561C11.003 24.3909 11.0134 24.425 11.033 24.4538C11.0526 24.4826 11.0804 24.5049 11.1128 24.5176C11.1452 24.5304 11.1807 24.533 11.2147 24.5253C11.2487 24.5175 11.2795 24.4997 11.3031 24.4741L13.9721 21.6321H23.5271C24.057 21.5778 24.5461 21.3231 24.8945 20.9201C25.2428 20.5171 25.4241 19.9963 25.4011 19.4641V12.8461C25.432 12.3353 25.2603 11.8329 24.9234 11.4477C24.5865 11.0626 24.1115 10.8256 23.6011 10.7881L23.5931 10.7871ZM13.0701 18.5771C13.0704 18.4732 13.1118 18.3737 13.1852 18.3002C13.2587 18.2267 13.3583 18.1854 13.4621 18.1851H17.4471C17.5511 18.1851 17.6508 18.2264 17.7243 18.2999C17.7978 18.3734 17.8391 18.4731 17.8391 18.5771C17.8391 18.6811 17.7978 18.7808 17.7243 18.8543C17.6508 18.9278 17.5511 18.9691 17.4471 18.9691H13.4641C13.4125 18.9692 13.3614 18.9592 13.3137 18.9396C13.2659 18.9199 13.2225 18.8911 13.186 18.8547C13.1494 18.8183 13.1203 18.775 13.1004 18.7274C13.0806 18.6798 13.0703 18.6287 13.0701 18.5771ZM13.0701 16.2091C13.0704 16.1052 13.1118 16.0057 13.1852 15.9322C13.2587 15.8587 13.3583 15.8174 13.4621 15.8171H22.9351C23.0391 15.8171 23.1388 15.8584 23.2123 15.9319C23.2858 16.0054 23.3271 16.1051 23.3271 16.2091C23.3271 16.3131 23.2858 16.4128 23.2123 16.4863C23.1388 16.5598 23.0391 16.6011 22.9351 16.6011H13.4621C13.3583 16.6008 13.2587 16.5594 13.1852 16.486C13.1118 16.4125 13.0704 16.313 13.0701 16.2091ZM22.9341 14.2331H13.4611C13.3572 14.2331 13.2575 14.1918 13.184 14.1183C13.1104 14.0448 13.0691 13.9451 13.0691 13.8411C13.0691 13.7371 13.1104 13.6374 13.184 13.5639C13.2575 13.4904 13.3572 13.4491 13.4611 13.4491H22.9341C23.0381 13.4491 23.1378 13.4904 23.2113 13.5639C23.2848 13.6374 23.3261 13.7371 23.3261 13.8411C23.3261 13.9451 23.2848 14.0448 23.2113 14.1183C23.1378 14.1918 23.0381 14.2331 22.9341 14.2331Z" fill="#FAFAFA"/>
</g>
</svg>
