<svg width="58" height="58" viewBox="0 0 58 58" fill="none" xmlns="http://www.w3.org/2000/svg">
<g id="healthicons:truck-driver">
<path id="Vector" fill-rule="evenodd" clip-rule="evenodd" d="M18.125 11.4792C18.125 10.9499 23.5818 7.25 29 7.25C34.4181 7.25 39.875 10.9511 39.875 11.4792C39.875 13.3642 39.6744 14.4807 39.5052 15.0885C39.3929 15.4872 39.0195 15.7083 38.605 15.7083H19.3949C18.9805 15.7083 18.6071 15.4872 18.4947 15.0885C18.3256 14.4807 18.125 13.3642 18.125 11.4792ZM27.1875 10.875C26.867 10.875 26.5597 11.0023 26.3331 11.2289C26.1065 11.4555 25.9791 11.7629 25.9791 12.0833C25.9791 12.4038 26.1065 12.7111 26.3331 12.9378C26.5597 13.1644 26.867 13.2917 27.1875 13.2917H30.8125C31.133 13.2917 31.4403 13.1644 31.6669 12.9378C31.8935 12.7111 32.0208 12.4038 32.0208 12.0833C32.0208 11.7629 31.8935 11.4555 31.6669 11.2289C31.4403 11.0023 31.133 10.875 30.8125 10.875H27.1875ZM19.3792 23.2218C15.3555 21.9772 16.3705 19.7538 17.9051 18.125H40.4308C41.6585 19.6934 42.317 21.8092 38.6062 23.0755C38.7579 24.4217 38.625 25.7846 38.216 27.076C37.8071 28.3675 37.1313 29.5585 36.2325 30.572C35.3336 31.5855 34.2318 32.3987 32.9985 32.959C31.7652 33.5192 30.4278 33.814 29.0732 33.8243C27.7187 33.8345 26.377 33.5599 25.1354 33.0183C23.8938 32.4767 22.7798 31.6801 21.8658 30.6803C20.9518 29.6805 20.2581 28.4998 19.8297 27.2147C19.4014 25.9296 19.2479 24.5688 19.3792 23.2205V23.2218ZM28.6713 24.1667C31.8637 24.1667 34.3384 23.9975 36.2355 23.7027C36.2978 24.6878 36.1584 25.6754 35.8256 26.6047C35.4928 27.5341 34.9737 28.3857 34.3002 29.1074C33.6267 29.8291 32.8129 30.4056 31.9086 30.8016C31.0044 31.1976 30.0289 31.4049 29.0417 31.4106C28.0546 31.4162 27.0767 31.2203 26.168 30.8347C25.2593 30.4491 24.4389 29.882 23.7571 29.1681C23.0753 28.4542 22.5464 27.6087 22.203 26.6832C21.8595 25.7577 21.7086 24.7719 21.7596 23.786C23.5274 24.0301 25.7931 24.1667 28.6713 24.1667ZM39.1705 41.8083C38.0775 40.1031 36.5731 38.7003 34.7958 37.729C33.0185 36.7576 31.0254 36.249 29 36.25C26.9737 36.2487 24.9797 36.7574 23.2017 37.7292C21.4237 38.7009 19.9188 40.1046 18.8258 41.8107C18.4202 41.186 17.7971 40.7339 17.0774 40.542L14.7429 39.9173C13.9691 39.7099 13.1446 39.8182 12.4507 40.2187C11.7569 40.6191 11.2505 41.2787 11.0429 42.0524L10.1053 45.5542C10.0026 45.9374 9.97638 46.3371 10.0282 46.7304C10.08 47.1237 10.2087 47.503 10.4071 47.8466C10.6055 48.1902 10.8696 48.4913 11.1844 48.7328C11.4991 48.9743 11.8584 49.1514 12.2416 49.2541L14.5749 49.88C14.9674 49.9857 15.3772 50.0109 15.7796 49.954C16.1821 49.8971 16.5689 49.7593 16.9166 49.5489C16.9176 49.8694 17.0458 50.1763 17.2731 50.4023C17.5004 50.6282 17.8081 50.7546 18.1286 50.7536C18.4491 50.7527 18.756 50.6244 18.982 50.3971C19.2079 50.1699 19.3343 49.8621 19.3333 49.5417V48.3333C19.3333 47.873 19.3659 47.4198 19.4276 46.9764L25.7157 48.662C26.0076 49.2868 26.4717 49.8153 27.0534 50.1856C27.6351 50.5559 28.3104 50.7526 29 50.7526C29.6896 50.7526 30.3649 50.5559 30.9466 50.1856C31.5283 49.8153 31.9923 49.2868 32.2842 48.662L38.5724 46.9764C38.634 47.4198 38.6667 47.873 38.6667 48.3333V49.5417C38.665 49.8621 38.7908 50.1701 39.0163 50.3979C39.2418 50.6256 39.5485 50.7544 39.8689 50.756C40.1894 50.7576 40.4974 50.6319 40.7251 50.4064C40.9529 50.1809 41.0817 49.8742 41.0833 49.5537C41.76 49.9597 42.5961 50.1011 43.419 49.88L45.7535 49.2553C46.1368 49.1526 46.496 48.9755 46.8108 48.734C47.1255 48.4925 47.3897 48.1914 47.588 47.8478C47.7864 47.5042 47.9152 47.125 47.967 46.7316C48.0188 46.3383 47.9925 45.9386 47.8899 45.5554L46.951 42.0536C46.7434 41.2799 46.237 40.6203 45.5432 40.2199C44.8493 39.8195 44.0248 39.7111 43.2511 39.9185L40.9166 40.5432C40.1984 40.7344 39.5765 41.1858 39.1705 41.8083ZM20.0619 44.6443C20.7147 43.0657 21.7737 41.688 23.1313 40.6512C24.489 39.6145 26.0969 38.9556 27.7916 38.7416V43.7066C27.2501 43.8987 26.7619 44.2165 26.367 44.6338C25.9721 45.0512 25.6818 45.5563 25.52 46.1076L20.0619 44.6455V44.6443ZM37.938 44.6443C37.2852 43.0657 36.2262 41.6881 34.8685 40.6514C33.5109 39.6146 31.9031 38.9557 30.2083 38.7416V43.7066C31.3006 44.0933 32.1537 44.9875 32.48 46.1076L37.938 44.6455V44.6443ZM29 48.3333C29.3205 48.3333 29.6278 48.206 29.8544 47.9794C30.081 47.7528 30.2083 47.4455 30.2083 47.125C30.2083 46.8045 30.081 46.4972 29.8544 46.2706C29.6278 46.044 29.3205 45.9167 29 45.9167C28.6795 45.9167 28.3722 46.044 28.1456 46.2706C27.919 46.4972 27.7916 46.8045 27.7916 47.125C27.7916 47.4455 27.919 47.7528 28.1456 47.9794C28.3722 48.206 28.6795 48.3333 29 48.3333Z" fill="#FAFAFA"/>
</g>
</svg>
