<svg width="82" height="83" viewBox="0 0 82 83" fill="none" xmlns="http://www.w3.org/2000/svg">
<g id="Group 11482">
<circle id="Ellipse 53" cx="41" cy="41.8398" r="41" fill="#1757B6" fill-opacity="0.2"/>
<circle id="Ellipse 54" cx="41" cy="41.8398" r="25" fill="#1757B6" fill-opacity="0.5"/>
<g id="Cars">
<g id="Car">
<g id="Group" filter="url(#filter0_d_134_15426)">
<path id="Fill 1" d="M54.633 58.2424L52.9529 58.5673L52.8066 58.5958C51.6836 58.7605 50.545 58.8452 49.4042 58.8489C48.3824 58.737 47.674 57.8615 47.2487 57.1094C47.0663 57.0288 46.9076 56.9178 46.7833 56.7839C46.6591 56.6499 46.5721 56.4961 46.5281 56.3327L45.8979 54.2183C45.8151 53.9545 45.8455 53.6757 45.9842 53.4266L45.8919 53.1173L45.6112 52.1773L44.4096 52.0318L44.3139 51.7118L45.4487 51.6278L43.7744 46.0097C43.51 45.8389 43.3252 45.6016 43.2494 45.3359L41.7107 40.169C41.6177 39.8771 41.6657 39.5673 41.845 39.3015C41.7747 38.6533 41.7952 37.6408 42.5705 37.4209L47.3627 36.4982L52.1567 35.5753C52.9692 35.4863 53.5598 36.3846 53.8619 36.9872C54.1719 37.1583 54.3896 37.417 54.4719 37.7117L56.0134 42.8782C56.0963 43.142 56.0659 43.4209 55.9271 43.6699L57.6125 49.3244L58.5812 49.0168L58.6769 49.3367L57.7695 49.8539L58.0443 50.7761L58.145 51.0893C58.4044 51.2604 58.5857 51.4957 58.6605 51.7586L59.2907 53.8729C59.3723 54.139 59.339 54.4198 59.1962 54.6696C59.2612 55.5126 59.1574 56.6382 58.2639 57.1346C57.2444 57.5468 56.1817 57.8858 55.0884 58.1477L54.6315 58.2359L54.633 58.2424Z" fill="#121212"/>
</g>
<path id="Rectangle" d="M45.8937 37.5619C45.4055 37.6473 44.9181 37.3924 44.8048 36.9926C44.6916 36.5927 44.9955 36.1993 45.4836 36.1139L48.1351 35.6498C48.6232 35.5644 49.1107 35.8193 49.2239 36.2191C49.3371 36.619 49.0332 37.0124 48.5451 37.0978L45.8937 37.5619Z" fill="#FAFAFA"/>
<path id="Rectangle_2" d="M43.2323 38.0387C42.7445 38.124 42.2574 37.8696 42.1443 37.4706C42.0311 37.0715 42.3348 36.6789 42.8226 36.5937L44.5888 36.285C45.0766 36.1997 45.5637 36.4541 45.6768 36.8531C45.79 37.2522 45.4863 37.6448 44.9986 37.73L43.2323 38.0387Z" fill="#0A74D7"/>
<path id="Rectangle_3" d="M51.8616 57.4578C51.6172 57.5008 51.373 57.3725 51.3163 57.1712C51.2596 56.9698 51.4118 56.7718 51.6562 56.7288L55.1973 56.1057C55.4417 56.0627 55.6859 56.191 55.7426 56.3923C55.7993 56.5936 55.6471 56.7917 55.4026 56.8347L51.8616 57.4578Z" fill="#FAFAFA"/>
<path id="Rectangle_4" d="M49.4399 36.9264C48.9521 37.0117 48.465 36.7573 48.3519 36.3583C48.2387 35.9592 48.5424 35.5666 49.0302 35.4814L50.7965 35.1726C51.2842 35.0874 51.7713 35.3418 51.8845 35.7408C51.9976 36.1399 51.6939 36.5325 51.2062 36.6177L49.4399 36.9264Z" fill="#0A74D7"/>
<path id="Path" d="M52.1834 51.6757L52.1817 51.6699C53.4023 51.4192 54.5549 50.9936 55.5861 50.4129C55.8336 50.2873 56.0449 50.1202 56.2063 49.9224C56.3676 49.7247 56.4755 49.5008 56.5228 49.2652L56.5195 49.2537C56.5237 49.2023 56.5224 49.1506 56.5155 49.0992C56.5047 48.9893 56.4639 48.8824 56.3961 48.7862L53.8191 45.8537C53.5921 46.3787 51.1657 47.0613 50.2429 47.305C49.2943 47.4706 46.7724 47.8785 46.2297 47.5228L45.9583 51.0799C45.9638 51.1899 45.9995 51.298 46.0628 51.3962C46.0907 51.4431 46.1233 51.488 46.1602 51.5306L46.1662 51.5417C46.3624 51.7238 46.6024 51.8713 46.871 51.9746C47.1395 52.0778 47.4306 52.1347 47.7256 52.1415C48.9886 52.2166 50.2541 52.1099 51.4639 51.8263L51.4655 51.8321C51.5868 51.8056 51.7053 51.7796 51.8219 51.7532C51.9386 51.7267 52.0575 51.7022 52.1786 51.675L52.1834 51.6757Z" fill="#FAFAFA"/>
<path id="Path_2" d="M44.8869 42.7622L49.7887 41.6821L52.7533 41.032L52.9393 40.9911C53.7222 40.153 53.2442 38.6523 52.8004 37.6848L42.762 39.8938C43.0225 40.9017 43.5999 42.3805 44.8214 42.7767L44.8869 42.7622Z" fill="#FAFAFA"/>
<path id="Path 5" d="M42.6705 42.7566L44.6452 49.7681C44.6452 49.7681 45.529 46.4386 45.2979 45.6181C45.0668 44.7976 42.4384 41.9325 42.6705 42.7566Z" fill="#FAFAFA"/>
<path id="Path 5_2" d="M55.0488 40.5477L57.0235 47.5592C57.0235 47.5592 54.4074 44.7377 54.1763 43.9172C53.9452 43.0967 54.8167 39.7236 55.0488 40.5477Z" fill="#FAFAFA"/>
</g>
</g>
</g>
<defs>
<filter id="filter0_d_134_15426" x="37.6444" y="33.5594" width="25.71" height="31.3192" filterUnits="userSpaceOnUse" color-interpolation-filters="sRGB">
<feFlood flood-opacity="0" result="BackgroundImageFix"/>
<feColorMatrix in="SourceAlpha" type="matrix" values="0 0 0 0 0 0 0 0 0 0 0 0 0 0 0 0 0 0 127 0" result="hardAlpha"/>
<feOffset dy="2.00998"/>
<feGaussianBlur stdDeviation="2.00998"/>
<feColorMatrix type="matrix" values="0 0 0 0 0 0 0 0 0 0 0 0 0 0 0 0 0 0 0.2 0"/>
<feBlend mode="normal" in2="BackgroundImageFix" result="effect1_dropShadow_134_15426"/>
<feBlend mode="normal" in="SourceGraphic" in2="effect1_dropShadow_134_15426" result="shape"/>
</filter>
</defs>
</svg>
