<svg width="19" height="19" viewBox="0 0 19 19" fill="none" xmlns="http://www.w3.org/2000/svg">
<path d="M10.8667 0.65C10.5205 0.390356 10.0994 0.25 9.66667 0.25C9.23393 0.25 8.81286 0.390356 8.46667 0.65L1.46667 5.9C1.21828 6.08629 1.01667 6.32786 0.877814 6.60557C0.738958 6.88328 0.666668 7.18951 0.666668 7.5V17C0.666668 17.5304 0.877382 18.0391 1.25245 18.4142C1.62753 18.7893 2.13623 19 2.66667 19H6.56667C6.85841 19 7.1382 18.8841 7.34449 18.6778C7.55078 18.4715 7.66667 18.1917 7.66667 17.9V13C7.66667 12.4696 7.87738 11.9609 8.25245 11.5858C8.62753 11.2107 9.13624 11 9.66667 11C10.1971 11 10.7058 11.2107 11.0809 11.5858C11.456 11.9609 11.6667 12.4696 11.6667 13V17.9C11.6667 18.1917 11.7826 18.4715 11.9889 18.6778C12.1951 18.8841 12.4749 19 12.7667 19H16.6667C17.1971 19 17.7058 18.7893 18.0809 18.4142C18.456 18.0391 18.6667 17.5304 18.6667 17V7.5C18.6667 7.18951 18.5944 6.88328 18.4555 6.60557C18.3167 6.32786 18.1151 6.08629 17.8667 5.9L10.8667 0.65Z" fill="#0A74D7"/>
</svg>
