<svg width="24" height="21" viewBox="0 0 24 21" fill="none" xmlns="http://www.w3.org/2000/svg">
<g id="filename">
<path id="Path 4671" d="M18 1.63315C18 1.24249 17.8736 0.867826 17.6486 0.591585C17.4236 0.315344 17.1184 0.160156 16.8002 0.160156H1.19984C0.881621 0.160156 0.576437 0.315344 0.351424 0.591585C0.126411 0.867826 0 1.24249 0 1.63315C0 2.02382 0.126411 2.39848 0.351424 2.67472C0.576437 2.95097 0.881621 3.10615 1.19984 3.10615H16.8002C17.1184 3.10615 17.4236 2.95097 17.6486 2.67472C17.8736 2.39848 18 2.02382 18 1.63315ZM1.19984 8.99915H22.8002C23.1184 8.99915 23.4236 9.15434 23.6486 9.43058C23.8736 9.70682 24 10.0815 24 10.4722C24 10.8628 23.8736 11.2375 23.6486 11.5137C23.4236 11.79 23.1184 11.9452 22.8002 11.9452H1.19984C0.881621 11.9452 0.576437 11.79 0.351424 11.5137C0.126411 11.2375 0 10.8628 0 10.4722C0 10.0815 0.126411 9.70682 0.351424 9.43058C0.576437 9.15434 0.881621 8.99915 1.19984 8.99915ZM1.19984 17.8382H12C12.3182 17.8382 12.6234 17.9933 12.8484 18.2696C13.0734 18.5458 13.1998 18.9205 13.1998 19.3112C13.1998 19.7018 13.0734 20.0765 12.8484 20.3527C12.6234 20.629 12.3182 20.7842 12 20.7842H1.19984C0.881621 20.7842 0.576437 20.629 0.351424 20.3527C0.126411 20.0765 1.43032e-07 19.7018 1.43032e-07 19.3112C1.43032e-07 18.9205 0.126411 18.5458 0.351424 18.2696C0.576437 17.9933 0.881621 17.8382 1.19984 17.8382Z" fill="#FAFAFA"/>
</g>
</svg>
