<svg width="24" height="22" viewBox="0 0 24 22" fill="none" xmlns="http://www.w3.org/2000/svg">
<g id="material-symbols:notifications-outline-rounded">
<path id="Vector" d="M5 17.4167C4.71667 17.4167 4.479 17.3287 4.287 17.1527C4.09567 16.9773 4 16.7598 4 16.5C4 16.2403 4.09567 16.0228 4.287 15.8474C4.479 15.6714 4.71667 15.5834 5 15.5834H6V9.16671C6 7.89865 6.41667 6.77176 7.25 5.78604C8.08333 4.80093 9.16667 4.1556 10.5 3.85004V3.20837C10.5 2.82643 10.646 2.50193 10.938 2.23487C11.2293 1.96721 11.5833 1.83337 12 1.83337C12.4167 1.83337 12.7707 1.96721 13.062 2.23487C13.354 2.50193 13.5 2.82643 13.5 3.20837V3.85004C14.8333 4.1556 15.9167 4.80093 16.75 5.78604C17.5833 6.77176 18 7.89865 18 9.16671V15.5834H19C19.2833 15.5834 19.5207 15.6714 19.712 15.8474C19.904 16.0228 20 16.2403 20 16.5C20 16.7598 19.904 16.9773 19.712 17.1527C19.5207 17.3287 19.2833 17.4167 19 17.4167H5ZM12 20.1667C11.45 20.1667 10.9793 19.9873 10.588 19.6286C10.196 19.2693 10 18.8375 10 18.3334H14C14 18.8375 13.8043 19.2693 13.413 19.6286C13.021 19.9873 12.55 20.1667 12 20.1667ZM8 15.5834H16V9.16671C16 8.15837 15.6083 7.29518 14.825 6.57712C14.0417 5.85907 13.1 5.50004 12 5.50004C10.9 5.50004 9.95833 5.85907 9.175 6.57712C8.39167 7.29518 8 8.15837 8 9.16671V15.5834Z" fill="#FAFAFA"/>
</g>
</svg>
