<svg width="36" height="36" viewBox="0 0 36 36" fill="none" xmlns="http://www.w3.org/2000/svg">
<g id="Group 11231">
<path id="Rectangle 72" d="M36 18C36 8.05887 27.9411 0 18 0C8.05887 0 0 8.05887 0 18C0 27.9411 8.05887 36 18 36C27.9411 36 36 27.9411 36 18Z" fill="#0A74D7"/>
<g id="index">
<path id="Path 28420" d="M20.994 25.3878C19.9944 25.2429 19.0441 24.8602 18.223 24.2718C17.2714 23.6092 16.3972 22.8417 15.617 21.9838C14.6331 20.9805 13.705 19.9239 12.837 18.8188C12.1413 17.9345 11.6047 16.936 11.251 15.8678C11.0251 15.173 10.9658 14.4348 11.078 13.7128C11.236 12.8795 11.6683 12.123 12.306 11.5638C12.5635 11.3335 12.8432 11.1291 13.141 10.9538C13.3183 10.8411 13.5248 10.7829 13.7348 10.7863C13.9449 10.7896 14.1494 10.8545 14.323 10.9728C15.1549 11.4679 15.7925 12.2325 16.13 13.1398C16.1878 13.2676 16.2104 13.4086 16.1952 13.5481C16.1801 13.6875 16.1279 13.8204 16.044 13.9328C15.835 14.2148 15.617 14.4898 15.406 14.7728C15.22 15.0228 15.027 15.2728 14.862 15.5318C14.777 15.6518 14.732 15.7955 14.7332 15.9425C14.7345 16.0895 14.782 16.2323 14.869 16.3508C15.286 16.9358 15.69 17.5388 16.143 18.0958C16.9635 19.1115 17.872 20.0528 18.858 20.9088C19.078 21.0978 19.313 21.2648 19.547 21.4358C19.6468 21.5133 19.7668 21.5606 19.8926 21.5719C20.0185 21.5833 20.1449 21.5583 20.257 21.4998C20.508 21.376 20.7523 21.2392 20.989 21.0898C21.317 20.8808 21.639 20.6658 21.96 20.4588C22.0926 20.3739 22.2461 20.3273 22.4035 20.3241C22.5609 20.3209 22.7161 20.3613 22.852 20.4408C23.6817 20.8522 24.3583 21.5179 24.783 22.3408C24.9023 22.5465 24.9562 22.7836 24.9374 23.0207C24.9186 23.2577 24.8282 23.4835 24.678 23.6678C24.3184 24.1934 23.8389 24.6259 23.2792 24.9296C22.7195 25.2334 22.0956 25.3997 21.459 25.4148C21.3029 25.4125 21.147 25.4021 20.992 25.3838L20.994 25.3878Z" fill="#FAFAFA"/>
</g>
</g>
</svg>
