<svg width="20" height="20" viewBox="0 0 20 20" fill="none" xmlns="http://www.w3.org/2000/svg">
<g id="carbon:vpn-policy">
<path id="Vector" d="M18.75 9.37501C18.7513 8.74917 18.5959 8.13296 18.298 7.58255C18.0001 7.03215 17.5692 6.56505 17.0446 6.22382C16.5199 5.8826 15.9182 5.67812 15.2943 5.629C14.6704 5.57988 14.0441 5.6877 13.4725 5.94262C12.901 6.19754 12.4023 6.59146 12.0219 7.08847C11.6416 7.58549 11.3917 8.16979 11.295 8.78812C11.1983 9.40645 11.2579 10.0391 11.4684 10.6285C11.6789 11.2179 12.0335 11.7453 12.5 12.1625V18.125L15 16.9475L17.5 18.125V12.1625C17.8929 11.8121 18.2074 11.3827 18.4228 10.9023C18.6382 10.4219 18.7497 9.90147 18.75 9.37501ZM16.25 16.155L15 15.5663L13.75 16.155V12.9063C14.5578 13.198 15.4422 13.198 16.25 12.9063V16.155ZM15 11.875C14.5055 11.875 14.0222 11.7284 13.6111 11.4537C13.1999 11.179 12.8795 10.7885 12.6903 10.3317C12.5011 9.8749 12.4516 9.37224 12.548 8.88728C12.6445 8.40233 12.8826 7.95687 13.2322 7.60724C13.5819 7.25761 14.0273 7.01951 14.5123 6.92305C14.9972 6.82658 15.4999 6.87609 15.9567 7.06531C16.4135 7.25453 16.804 7.57496 17.0787 7.98609C17.3534 8.39721 17.5 8.88056 17.5 9.37501C17.4992 10.0378 17.2355 10.6732 16.7668 11.1419C16.2982 11.6105 15.6628 11.8742 15 11.875Z" fill="#FAFAFA"/>
<path id="Vector_2" d="M8.75 1.25C7.75579 1.25116 6.80264 1.64662 6.09963 2.34963C5.39662 3.05264 5.00116 4.00579 5 5V8.75H3.75C3.41858 8.75033 3.10083 8.88213 2.86648 9.11648C2.63213 9.35083 2.50033 9.66858 2.5 10V17.5C2.50033 17.8314 2.63213 18.1492 2.86648 18.3835C3.10083 18.6179 3.41858 18.7497 3.75 18.75H10.625V17.5H3.75V10H9.375V8.75H6.25V5C6.24938 4.38002 6.47914 3.78193 6.89469 3.32183C7.31023 2.86173 7.88192 2.57245 8.49875 2.51014C9.11559 2.44784 9.73357 2.61695 10.2327 2.98466C10.7319 3.35236 11.0766 3.89242 11.2 4.5L12.425 4.25C12.2503 3.40389 11.7895 2.64376 11.1202 2.09741C10.451 1.55106 9.61396 1.25182 8.75 1.25Z" fill="#FAFAFA"/>
</g>
</svg>
