<svg width="24" height="24" viewBox="0 0 24 24" fill="none" xmlns="http://www.w3.org/2000/svg">
<g id="healthicons:ui-user-profile-negative">
<g clip-path="url(#clip0_213_12391)">
<path id="Vector" fill-rule="evenodd" clip-rule="evenodd" d="M0 0H24V24H0V0ZM5.5 17.815C5.5 17.985 5.5285 18.1525 5.583 18.3105C3.92499 16.629 2.99687 14.3615 3 12C3 7.0295 7.0295 3 12 3C16.9705 3 21 7.0295 21 12C21.0032 14.3652 20.0722 16.6359 18.4095 18.318C18.4877 18.1044 18.5162 17.8758 18.4927 17.6495C18.4691 17.4232 18.3943 17.2053 18.2739 17.0124C18.1534 16.8194 17.9905 16.6564 17.7976 16.5359C17.6046 16.4154 17.3868 16.3406 17.1605 16.317C13.2815 15.9155 10.7425 15.877 6.8445 16.308C6.47413 16.3497 6.13217 16.5266 5.8841 16.8048C5.63602 17.0829 5.49926 17.4423 5.5 17.815ZM2 12C2 17.386 6.2585 21.778 11.592 21.992C11.7049 21.9982 11.8179 22.0007 11.931 21.9995L12 22C17.523 22 22 17.523 22 12C22 6.477 17.523 2 12 2C6.477 2 2 6.477 2 12ZM12 14C13.0609 14 14.0783 13.5786 14.8284 12.8284C15.5786 12.0783 16 11.0609 16 10C16 8.93913 15.5786 7.92172 14.8284 7.17157C14.0783 6.42143 13.0609 6 12 6C10.9391 6 9.92172 6.42143 9.17157 7.17157C8.42143 7.92172 8 8.93913 8 10C8 11.0609 8.42143 12.0783 9.17157 12.8284C9.92172 13.5786 10.9391 14 12 14Z" fill="#FDFDFD"/>
</g>
</g>
<defs>
<clipPath id="clip0_213_12391">
<rect width="24" height="24" rx="12" fill="white"/>
</clipPath>
</defs>
</svg>
