<svg width="24" height="24" viewBox="0 0 24 24" fill="none" xmlns="http://www.w3.org/2000/svg">
<g id="healthicons:referral">
<g id="Group">
<path id="Vector" d="M18.5 13.5C18.5 13.8978 18.342 14.2794 18.0607 14.5607C17.7794 14.842 17.3978 15 17 15C16.6022 15 16.2206 14.842 15.9393 14.5607C15.658 14.2794 15.5 13.8978 15.5 13.5C15.5 13.1022 15.658 12.7206 15.9393 12.4393C16.2206 12.158 16.6022 12 17 12C17.3978 12 17.7794 12.158 18.0607 12.4393C18.342 12.7206 18.5 13.1022 18.5 13.5Z" fill="#FDFDFD"/>
<path id="Vector_2" fill-rule="evenodd" clip-rule="evenodd" d="M17 12.5C16.7348 12.5 16.4804 12.6054 16.2929 12.7929C16.1054 12.9804 16 13.2348 16 13.5C16 13.7652 16.1054 14.0196 16.2929 14.2071C16.4804 14.3946 16.7348 14.5 17 14.5C17.2652 14.5 17.5196 14.3946 17.7071 14.2071C17.8946 14.0196 18 13.7652 18 13.5C18 13.2348 17.8946 12.9804 17.7071 12.7929C17.5196 12.6054 17.2652 12.5 17 12.5ZM15 13.5C15 12.9696 15.2107 12.4609 15.5858 12.0858C15.9609 11.7107 16.4696 11.5 17 11.5C17.5304 11.5 18.0391 11.7107 18.4142 12.0858C18.7893 12.4609 19 12.9696 19 13.5C19 14.0304 18.7893 14.5391 18.4142 14.9142C18.0391 15.2893 17.5304 15.5 17 15.5C16.4696 15.5 15.9609 15.2893 15.5858 14.9142C15.2107 14.5391 15 14.0304 15 13.5Z" fill="#FDFDFD"/>
<path id="Vector_3" d="M13 18.682C13 17.231 15.665 16.5 17 16.5C18.335 16.5 21 17.231 21 18.682V21H13V18.682Z" fill="#FDFDFD"/>
<path id="Vector_4" fill-rule="evenodd" clip-rule="evenodd" d="M14.147 18.4335C14.0055 18.576 14 18.654 14 18.682V20H20V18.682C20 18.654 19.995 18.576 19.853 18.4335C19.703 18.282 19.4505 18.1165 19.1 17.9635C18.394 17.654 17.53 17.5 17 17.5C16.47 17.5 15.606 17.655 14.9 17.963C14.5495 18.116 14.2975 18.282 14.147 18.4335ZM17 16.5C15.665 16.5 13 17.231 13 18.682V21H21V18.682C21 17.231 18.335 16.5 17 16.5Z" fill="#FDFDFD"/>
<path id="Vector_5" fill-rule="evenodd" clip-rule="evenodd" d="M7.5 19C7.5 19.2685 7.59 19.5205 7.7485 19.699C7.899 19.8685 8.1355 20 8.5 20H13.5V21H8.5C7.8645 21 7.351 20.7565 7.0015 20.3635C6.66 19.9795 6.5 19.4815 6.5 19V16.5H7.5V19Z" fill="#FDFDFD"/>
<path id="Vector_6" fill-rule="evenodd" clip-rule="evenodd" d="M7 15.293L9.8535 18.1465L9.1465 18.8535L7 16.707L4.8535 18.8535L4.1465 18.1465L7 15.293ZM5.5 4C5.5 3.73478 5.60536 3.48043 5.79289 3.29289C5.98043 3.10536 6.23478 3 6.5 3H10.5C10.7652 3 11.0196 3.10536 11.2071 3.29289C11.3946 3.48043 11.5 3.73478 11.5 4V4.5H14V14H3V4.5H5.5V4ZM5.5 5.5H4V6.5H5.5V5.5ZM5.5 7.5H4V13H6.5V10H10.5V13H13V7.5H11.5V8C11.5 8.26522 11.3946 8.51957 11.2071 8.70711C11.0196 8.89464 10.7652 9 10.5 9H6.5C6.23478 9 5.98043 8.89464 5.79289 8.70711C5.60536 8.51957 5.5 8.26522 5.5 8V7.5ZM11.5 6.5H13V5.5H11.5V6.5ZM9.5 13V11H7.5V13H9.5ZM8 5.5V4H9V5.5H10.5V6.5H9V8H8V6.5H6.5V5.5H8Z" fill="#FDFDFD"/>
</g>
</g>
</svg>
