<svg width="49" height="48" viewBox="0 0 49 48" fill="none" xmlns="http://www.w3.org/2000/svg">
<g id="emojione:seat">
<path id="Vector" d="M41.5416 24.0001C41.6916 25.6501 40.5666 27.0001 38.9916 27.0001H10.3416C8.76661 27.0001 7.64161 25.6501 7.79161 24.0001L9.36661 7.3501C9.51661 5.7001 10.9416 4.3501 12.5166 4.3501H36.8166C38.3916 4.3501 39.8166 5.7001 39.9666 7.3501L41.5416 24.0001Z" fill="#B1DEE5"/>
<path id="Vector_2" d="M7.34167 22.875H11.8417V28.875H7.34167V22.875ZM37.4917 22.875H41.9917V28.875H37.4917V22.875ZM11.6167 38.175H16.1167V45.75H11.6167V38.175ZM33.2167 38.175H37.7167V45.75H33.2167V38.175Z" fill="#FDFDFD"/>
<path id="Vector_3" d="M31.7166 18.7499C31.4916 20.6999 29.9166 22.3499 28.3416 22.3499H20.9916C19.3416 22.3499 17.8416 20.775 17.6166 18.7499L16.2666 7.79995C16.0416 5.84995 17.1666 4.19995 18.7416 4.19995H30.5166C32.1666 4.19995 33.2916 5.84995 32.9916 7.79995L31.7166 18.7499Z" fill="#4CD964"/>
<path id="Vector_4" d="M17.9166 44.175C17.7666 43.8 17.3166 43.425 16.9416 43.425H10.9416C10.4916 43.425 10.1166 43.725 9.96657 44.175L8.84157 47.25C8.69157 47.625 8.91657 48 9.36657 48H18.3666C18.8166 48 19.0416 47.7 18.8916 47.25L17.9166 44.175ZM40.4916 47.25L39.4416 44.175C39.2916 43.8 38.8416 43.425 38.4666 43.425H32.4666C32.0166 43.425 31.6416 43.725 31.4916 44.175L30.4416 47.25C30.2916 47.625 30.5166 48 30.9666 48H39.9666C40.3416 48 40.5666 47.7 40.4916 47.25Z" fill="#94989B"/>
<path id="Vector_5" d="M35.3166 4.5C35.3166 6.15 34.0416 7.5 32.4666 7.5H16.7916C15.2166 7.5 13.9416 6.15 13.9416 4.5V3C13.9416 1.35 15.2166 0 16.7916 0H32.4666C34.0416 0 35.3166 1.35 35.3166 3V4.5ZM12.2916 21.9L12.0666 20.325C11.9166 19.5 11.2416 18.825 10.4916 18.825H8.46665C7.71665 18.825 7.04165 19.5 6.89165 20.325L6.66665 21.9C6.51665 22.725 7.04165 23.4 7.79165 23.4H11.1666C11.9166 23.4 12.4416 22.725 12.2916 21.9ZM42.5166 21.9L42.2916 20.325C42.1416 19.5 41.4666 18.825 40.7166 18.825H38.6916C37.9416 18.825 37.2666 19.5 37.1166 20.325L36.8916 21.9C36.7416 22.725 37.2666 23.4 38.0166 23.4H41.3916C42.1416 23.4 42.5916 22.725 42.5166 21.9ZM39.2916 27H10.0416C7.71665 27 6.29165 29.25 6.74165 32.025L7.04165 33.975C7.49165 36.75 9.81665 39 12.0666 39H37.1166C39.4416 39 41.6916 36.75 42.1416 33.975L42.5166 32.025C43.0416 29.325 41.5416 27 39.2916 27Z" fill="#008000"/>
</g>
</svg>
