<svg width="38" height="21" viewBox="0 0 38 21" fill="none" xmlns="http://www.w3.org/2000/svg">
<path id="Vector" d="M10.6668 0.160156H27.3335C32.8502 0.160156 37.3335 4.64349 37.3335 10.1602C37.3335 15.6768 32.8502 20.1602 27.3335 20.1602H10.6668C5.15017 20.1602 0.666832 15.6768 0.666832 10.1602C0.666832 4.64349 5.15017 0.160156 10.6668 0.160156ZM10.6668 16.8268H27.3335C31.0168 16.8268 34.0002 13.8435 34.0002 10.1602C34.0002 6.47682 31.0168 3.49349 27.3335 3.49349H10.6668C6.9835 3.49349 4.00017 6.47682 4.00017 10.1602C4.00017 13.8435 6.9835 16.8268 10.6668 16.8268ZM27.3335 5.16016C30.1002 5.16016 32.3335 7.39349 32.3335 10.1602C32.3335 12.9268 30.1002 15.1602 27.3335 15.1602C24.5668 15.1602 22.3335 12.9268 22.3335 10.1602C22.3335 7.39349 24.5668 5.16016 27.3335 5.16016Z" fill="#0A74D7"/>
</svg>
