<svg width="38" height="21" viewBox="0 0 38 21" fill="none" xmlns="http://www.w3.org/2000/svg">
<path id="Vector" d="M27.3333 0.160156H10.6667C5.14999 0.160156 0.666656 4.64349 0.666656 10.1602C0.666656 15.6768 5.14999 20.1602 10.6667 20.1602H27.3333C32.85 20.1602 37.3333 15.6768 37.3333 10.1602C37.3333 4.64349 32.85 0.160156 27.3333 0.160156ZM27.3333 16.8268H10.6667C6.98332 16.8268 3.99999 13.8435 3.99999 10.1602C3.99999 6.47682 6.98332 3.49349 10.6667 3.49349H27.3333C31.0167 3.49349 34 6.47682 34 10.1602C34 13.8435 31.0167 16.8268 27.3333 16.8268ZM10.6667 5.16016C7.89999 5.16016 5.66666 7.39349 5.66666 10.1602C5.66666 12.9268 7.89999 15.1602 10.6667 15.1602C13.4333 15.1602 15.6667 12.9268 15.6667 10.1602C15.6667 7.39349 13.4333 5.16016 10.6667 5.16016Z" fill="#A0A2A9"/>
</svg>
