<svg width="49" height="48" viewBox="0 0 49 48" fill="none" xmlns="http://www.w3.org/2000/svg">
<g id="emojione:seat">
<path id="Vector" d="M41.2085 24.0001C41.3585 25.6501 40.2335 27.0001 38.6585 27.0001H10.0085C8.43348 27.0001 7.30848 25.6501 7.45848 24.0001L9.03348 7.3501C9.18348 5.7001 10.6085 4.3501 12.1835 4.3501H36.4835C38.0585 4.3501 39.4835 5.7001 39.6335 7.3501L41.2085 24.0001Z" fill="#E0E0E0"/>
<path id="Vector_2" d="M7.00854 22.875H11.5085V28.875H7.00854V22.875ZM37.1585 22.875H41.6585V28.875H37.1585V22.875ZM11.2835 38.175H15.7835V45.75H11.2835V38.175ZM32.8835 38.175H37.3835V45.75H32.8835V38.175Z" fill="#FDFDFD"/>
<path id="Vector_3" d="M31.3835 18.7499C31.1585 20.6999 29.5835 22.3499 28.0085 22.3499H20.6585C19.0085 22.3499 17.5085 20.775 17.2835 18.7499L15.9335 7.79995C15.7085 5.84995 16.8335 4.19995 18.4085 4.19995H30.1835C31.8335 4.19995 32.9585 5.84995 32.6585 7.79995L31.3835 18.7499Z" fill="#77787B"/>
<path id="Vector_4" d="M17.5834 44.175C17.4334 43.8 16.9834 43.425 16.6084 43.425H10.6084C10.1584 43.425 9.78344 43.725 9.63344 44.175L8.50844 47.25C8.35844 47.625 8.58344 48 9.03344 48H18.0334C18.4834 48 18.7084 47.7 18.5584 47.25L17.5834 44.175ZM40.1584 47.25L39.1084 44.175C38.9584 43.8 38.5084 43.425 38.1334 43.425H32.1334C31.6834 43.425 31.3084 43.725 31.1584 44.175L30.1084 47.25C29.9584 47.625 30.1834 48 30.6334 48H39.6334C40.0084 48 40.2334 47.7 40.1584 47.25Z" fill="#94989B"/>
<path id="Vector_5" d="M34.9835 4.5C34.9835 6.15 33.7085 7.5 32.1335 7.5H16.4585C14.8835 7.5 13.6085 6.15 13.6085 4.5V3C13.6085 1.35 14.8835 0 16.4585 0H32.1335C33.7085 0 34.9835 1.35 34.9835 3V4.5ZM11.9585 21.9L11.7335 20.325C11.5835 19.5 10.9085 18.825 10.1585 18.825H8.13352C7.38352 18.825 6.70852 19.5 6.55852 20.325L6.33352 21.9C6.18352 22.725 6.70852 23.4 7.45852 23.4H10.8335C11.5835 23.4 12.1085 22.725 11.9585 21.9ZM42.1835 21.9L41.9585 20.325C41.8085 19.5 41.1335 18.825 40.3835 18.825H38.3585C37.6085 18.825 36.9335 19.5 36.7835 20.325L36.5585 21.9C36.4085 22.725 36.9335 23.4 37.6835 23.4H41.0585C41.8085 23.4 42.2585 22.725 42.1835 21.9ZM38.9585 27H9.70852C7.38352 27 5.95852 29.25 6.40852 32.025L6.70852 33.975C7.15852 36.75 9.48352 39 11.7335 39H36.7835C39.1085 39 41.3585 36.75 41.8085 33.975L42.1835 32.025C42.7085 29.325 41.2085 27 38.9585 27Z" fill="#A0A0A0"/>
</g>
</svg>
