<svg width="24" height="24" viewBox="0 0 24 24" fill="none" xmlns="http://www.w3.org/2000/svg">
<g id="material-symbols-light:account-balance-wallet">
<path id="Vector" d="M5.615 20C5.155 20 4.771 19.846 4.463 19.538C4.15433 19.2293 4 18.845 4 18.385V5.615C4 5.155 4.15433 4.771 4.463 4.463C4.771 4.15433 5.155 4 5.615 4H18.385C18.845 4 19.229 4.15433 19.537 4.463C19.8457 4.771 20 5.155 20 5.615V7H13.615C12.8163 7 12.181 7.23633 11.709 7.709C11.2363 8.181 11 8.81633 11 9.615V14.385C11 15.1837 11.2363 15.819 11.709 16.291C12.181 16.7637 12.8163 17 13.615 17H20V18.385C20 18.845 19.846 19.229 19.538 19.537C19.2293 19.8457 18.845 20 18.385 20H5.615ZM13.615 16C13.155 16 12.771 15.846 12.463 15.538C12.1543 15.2293 12 14.845 12 14.385V9.615C12 9.155 12.1543 8.771 12.463 8.463C12.771 8.15433 13.1547 8 13.614 8H19.384C19.844 8 20.228 8.15433 20.536 8.463C20.8447 8.771 20.999 9.155 20.999 9.615V14.385C20.999 14.845 20.845 15.2293 20.537 15.538C20.2283 15.846 19.844 16 19.384 16H13.615ZM16 13.5C16.4333 13.5 16.7917 13.3583 17.075 13.075C17.3583 12.7917 17.5 12.4333 17.5 12C17.5 11.5667 17.3583 11.2083 17.075 10.925C16.7917 10.6417 16.4333 10.5 16 10.5C15.5667 10.5 15.2083 10.6417 14.925 10.925C14.6417 11.2083 14.5 11.5667 14.5 12C14.5 12.4333 14.6417 12.7917 14.925 13.075C15.2083 13.3583 15.5667 13.5 16 13.5Z" fill="#0A74D7"/>
</g>
</svg>
